<svg width="36" height="36" viewBox="0 0 36 36" fill="none" xmlns="http://www.w3.org/2000/svg">
<g id="lets-icons:setting-alt-line-light">
<g id="Group">
<path id="Vector" d="M4.62297 20.9175C3.82947 19.4925 3.43347 18.7785 3.43347 18C3.43347 17.2215 3.82947 16.509 4.62297 15.084L6.64497 11.445L8.78397 7.87351C9.62247 6.47401 10.041 5.77351 10.7145 5.38351C11.3895 4.99501 12.204 4.98301 13.8345 4.95601L18 4.89001L22.1625 4.95601C23.7945 4.98301 24.609 4.99501 25.2825 5.38501C25.9575 5.77501 26.3775 6.47401 27.2145 7.87351L29.355 11.445L31.38 15.084C32.172 16.509 32.568 17.2215 32.568 18C32.568 18.7785 32.172 19.491 31.3785 20.916L29.355 24.555L27.216 28.1265C26.3775 29.526 25.959 30.2265 25.2855 30.6165C24.6105 31.005 23.796 31.017 22.1655 31.044L18 31.11L13.8375 31.044C12.2055 31.017 11.391 31.005 10.7175 30.615C10.0425 30.225 9.62247 29.526 8.78547 28.1265L6.64497 24.555L4.62297 20.9175Z" stroke="#1C282F" stroke-width="3"/>
<path id="Vector_2" d="M18 22.5C20.4853 22.5 22.5 20.4853 22.5 18C22.5 15.5147 20.4853 13.5 18 13.5C15.5147 13.5 13.5 15.5147 13.5 18C13.5 20.4853 15.5147 22.5 18 22.5Z" stroke="#1C282F" stroke-width="3"/>
</g>
</g>
</svg>
